# xmcd
# 
# Track frame offsets:
#     150
#     47725
#     104132
#     150935
#     185567
#     223625
# 
# Disc length: 3290
# 
# Revision: 1
# Processed by: cddbd v1.5.2PL0 Copyright (c) Steve Scherf et al.
# Submitted via: BonkEnc v1.0.8
# 
DISCID=4f0cd806
DTITLE=菊地雅章 - M
DYEAR=1997
DGENRE=Contemporary Jazz
TTITLE0=Drizzling Rain
TTITLE1=Autumn Leaves
TTITLE2=Round Midnight
TTITLE3=Oleo
TTITLE4=M
TTITLE5=It Might As Well Be Spring
EXTD=YEAR: 1997
EXTT0=
EXTT1=
EXTT2=
EXTT3=
EXTT4=
EXTT5=
PLAYORDER=
